<svg version="1.1" id="Layer_1" xmlns="http://www.w3.org/2000/svg" xmlns:xlink="http://www.w3.org/1999/xlink" x="0px" y="0px"
	 width="100%" viewBox="0 0 1024 768" enable-background="new 0 0 1024 768" xml:space="preserve">
<path fill="#292E32" opacity="1.000000" stroke="none" 
	d="
M526.000000,769.000000 
	C350.666656,769.000000 175.833328,769.000000 1.000000,769.000000 
	C1.000000,513.000000 1.000000,257.000000 1.000000,1.000000 
	C342.333344,1.000000 683.666687,1.000000 1025.000000,1.000000 
	C1025.000000,257.000000 1025.000000,513.000000 1025.000000,769.000000 
	C858.833313,769.000000 692.666687,769.000000 526.000000,769.000000 
M435.061279,417.567474 
	C435.330719,417.787811 435.600159,418.008148 435.860535,418.116180 
	C435.860535,418.116180 435.749084,418.132294 435.923737,418.836182 
	C446.350281,435.171204 445.737335,452.049194 437.329895,470.062164 
	C440.050262,469.055847 441.539246,468.401611 443.087219,467.949158 
	C453.614685,464.872009 464.158142,461.849548 474.688446,458.782104 
	C478.250641,457.744476 479.639038,458.852631 480.075409,462.722260 
	C481.418671,474.634277 483.141144,486.505890 484.893646,498.367035 
	C485.181854,500.317688 486.365143,502.136108 487.134766,504.015625 
	C487.967743,503.794891 488.800720,503.574158 489.633698,503.353424 
	C487.707184,488.367188 485.780701,473.380920 483.804321,458.006714 
	C496.580231,456.341278 507.560211,459.773438 517.804138,466.225006 
	C517.804138,466.225006 517.729614,466.277740 518.042664,466.855988 
	C520.000061,468.748383 521.957458,470.640778 524.011047,473.285706 
	C525.025696,473.720734 526.040283,474.155792 526.943054,474.878815 
	C527.030029,474.682800 527.116943,474.486786 527.877747,473.720612 
	C528.314453,472.954529 528.751160,472.188446 529.707092,471.229309 
	C530.987549,469.111084 532.408325,467.064209 533.526306,464.863434 
	C542.813965,446.579895 544.916260,427.816742 536.769775,408.567566 
	C536.009094,406.770142 533.979126,404.647064 532.213867,404.292755 
	C525.875305,403.020569 519.397217,402.443054 512.332520,401.307739 
	C511.865906,401.279602 511.399323,401.251465 510.229492,400.929382 
	C468.240723,394.149872 426.251953,387.370361 383.595703,380.483093 
	C385.013733,385.553070 389.322693,384.861176 392.686310,386.924377 
	C394.420227,387.335175 396.154114,387.745941 398.126373,388.774597 
	C401.004639,390.281616 403.882874,391.788635 406.908356,393.164307 
	C406.908356,393.164307 406.734222,393.257080 407.093719,393.785797 
	C408.415955,394.501709 409.738159,395.217621 411.237518,396.136353 
	C411.237518,396.136353 411.504333,396.172882 411.919342,396.707367 
	C412.885895,397.248627 413.852448,397.789886 414.799622,398.244568 
	C414.799622,398.244568 414.716553,398.275787 415.039642,398.847870 
	C418.313293,401.294647 421.586945,403.741425 424.901215,406.102295 
	C424.901215,406.102295 424.814392,406.140900 425.084686,406.748596 
	C427.321564,408.906250 429.558472,411.063873 431.835693,413.148285 
	C431.835693,413.148285 431.758911,413.115295 431.937775,413.694366 
	C432.235321,413.957550 432.532837,414.220764 432.933441,414.792023 
	C432.933441,414.792023 433.191437,414.989380 433.339691,415.535431 
	C433.870605,416.049744 434.401550,416.564026 434.995087,417.018524 
	C434.995087,417.018524 434.915375,417.052032 435.061279,417.567474 
M452.673889,224.330276 
	C452.673889,224.330276 452.231140,224.232117 451.843048,223.901199 
	C450.855133,223.600800 449.867218,223.300400 448.315033,222.578201 
	C448.112274,222.459793 447.909485,222.341385 448.088287,221.325745 
	C447.537415,213.354126 446.986511,205.382523 446.435638,197.410904 
	C445.600616,197.312195 444.765625,197.213470 443.930603,197.114761 
	C443.441772,198.756500 442.443909,200.435059 442.559418,202.033112 
	C442.907257,206.844513 443.801605,211.614410 444.232971,216.422928 
	C444.365082,217.895599 443.691040,219.440582 442.613464,220.569733 
	C432.924500,217.851303 423.235535,215.132889 413.546570,212.414459 
	C413.350159,212.824982 413.153748,213.235504 412.957336,213.646042 
	C416.998444,217.459167 421.039551,221.272293 425.286896,225.699097 
	C435.327423,235.792953 442.322266,247.489517 444.252563,262.705048 
	C444.303925,263.875031 444.355286,265.045013 444.145966,266.928162 
	C441.116516,275.683716 438.087036,284.439240 435.185242,292.825745 
	C440.982391,289.692474 447.375000,286.237366 454.516174,282.377655 
	C455.216125,286.940765 455.696899,290.024231 456.160858,293.110229 
	C457.143677,299.647247 457.140106,299.647797 460.736115,299.744232 
	C460.377380,293.510010 460.018982,287.281342 460.532379,280.909119 
	C475.568604,276.887451 487.220612,283.530853 498.296753,293.637329 
	C498.296753,292.019043 498.373047,291.219116 498.285645,290.437531 
	C496.148804,271.330505 488.111328,254.907013 476.032288,240.120651 
	C470.178406,232.954651 463.829987,226.992859 454.166565,224.865082 
	C453.785522,224.783112 453.404480,224.701141 452.673889,224.330276 
M512.953979,312.130859 
	C510.949799,311.281952 509.000366,309.870544 506.933167,309.669434 
	C480.461029,307.093903 453.974152,304.668152 427.485779,302.261932 
	C421.009583,301.673615 414.514496,301.293243 406.547668,300.708679 
	C410.755890,304.660248 413.747864,307.469727 417.000092,310.919800 
	C424.250580,319.446198 426.438202,329.340942 423.544556,339.927795 
	C421.990570,345.613464 419.176605,351.066132 416.239929,356.230865 
	C413.353699,361.306763 409.592773,365.885284 406.215698,370.682068 
	C425.906036,366.352051 445.037048,361.226288 465.397095,363.286377 
	C466.286926,369.922211 466.984802,376.367462 468.097351,382.740326 
	C468.479675,384.930206 469.898071,386.939209 470.843140,389.030823 
	C471.269867,386.867676 472.202484,384.662811 472.028015,382.549286 
	C471.515381,376.337677 470.563080,370.162384 469.776306,363.920074 
	C484.535248,363.574432 501.752350,370.443665 527.532837,386.614594 
	C538.116272,368.624603 530.497314,334.230011 514.800903,314.458466 
	C514.266296,313.903931 513.731689,313.349396 512.953979,312.130859 
M567.073792,227.895447 
	C574.864990,228.466599 582.298889,227.481659 588.983276,223.022537 
	C595.110046,218.935410 601.276489,214.907700 608.609985,210.072906 
	C602.087036,210.472336 596.558594,211.004578 591.023682,211.084030 
	C587.111328,211.140213 583.156067,210.813232 579.282043,210.238800 
	C574.914673,209.591217 570.616882,208.474426 565.743958,206.938217 
	C564.042114,206.725067 562.340332,206.511917 559.803589,206.194214 
	C559.803589,222.261124 559.803589,237.608994 559.803589,253.780777 
	C547.617493,247.236450 536.362000,241.191910 525.106567,235.147369 
	C535.100403,245.409515 545.243835,254.978500 555.635254,264.270050 
	C558.910156,267.198303 560.123108,270.333649 560.082764,274.681152 
	C559.534363,333.837799 559.131287,392.995850 558.712158,452.153656 
	C558.704773,453.201782 558.940674,454.251617 559.123535,455.819214 
	C564.935486,448.003784 568.460144,440.587341 568.279053,430.754150 
	C567.374084,381.603638 567.262878,332.438507 566.875244,283.278473 
	C566.860168,281.364136 566.873291,279.449615 566.873291,277.535156 
	C567.285217,277.390472 567.697205,277.245789 568.109131,277.101074 
	C572.223206,282.430145 576.538269,287.617218 580.418640,293.111359 
	C605.393127,328.472168 611.582092,366.817413 597.803650,407.972015 
	C590.444580,429.952576 576.930115,448.312103 562.584595,466.237640 
	C549.804260,482.207428 537.819946,498.823456 525.777588,515.367737 
	C522.958130,519.241150 521.322144,523.975891 519.141663,528.314392 
	C523.816650,523.325195 527.573120,517.809509 531.833801,512.715576 
	C545.421814,496.470093 562.702698,484.952576 581.064880,474.873291 
	C597.276611,465.974457 613.769043,457.414459 627.385437,444.637421 
	C653.917786,419.740662 664.649536,389.923889 653.739441,354.182037 
	C647.275024,333.004517 634.452209,315.620056 619.229675,299.858917 
	C604.432434,284.538055 587.336548,272.125885 569.775330,260.262543 
	C568.357239,259.304535 566.743103,257.381409 566.693298,255.858536 
	C566.388306,246.538986 566.508667,237.205536 567.073792,227.895447 
M375.307983,481.772369 
	C370.847717,487.386292 366.387421,493.000244 361.939758,498.598297 
	C375.598297,499.146515 388.799927,498.933380 401.810669,500.406311 
	C414.988251,501.898132 428.148071,504.383606 441.007660,507.647369 
	C459.291046,512.287720 473.852325,519.587830 475.856659,523.836853 
	C471.102020,522.198853 466.565704,520.370422 461.883331,519.066650 
	C434.403687,511.415070 406.305481,510.709106 378.111176,512.433655 
	C370.732330,512.885010 363.365570,514.956421 356.196075,516.996460 
	C349.409729,518.927551 343.773834,522.950134 339.743591,529.061646 
	C340.307983,529.345032 340.570160,529.592651 340.830872,529.591125 
	C371.644104,529.406372 402.459229,528.899475 433.269745,529.100098 
	C456.516632,529.251465 479.088318,532.663452 497.550018,547.151733 
	C502.140442,544.151184 506.340668,541.405762 510.857361,538.453491 
	C503.697510,525.576172 492.816833,515.638000 480.887238,506.768799 
	C455.403778,487.822693 426.258118,478.459290 395.204773,473.602356 
	C386.514618,472.243134 380.010468,472.933838 375.307983,481.772369 
M546.888000,538.176941 
	C558.575439,532.829407 570.989990,530.092529 583.697266,530.012878 
	C617.507874,529.800903 651.322266,530.190796 685.135193,530.339722 
	C686.878357,530.347412 688.621521,530.340698 690.948914,530.340698 
	C684.587769,520.993835 675.675781,516.863892 665.907288,515.141235 
	C633.432617,509.414520 600.977600,510.152008 568.661438,516.765076 
	C566.963196,517.112549 565.218811,517.234253 563.495911,517.461060 
	C596.921692,502.043304 632.145813,497.648102 669.025879,499.356018 
	C663.992310,492.529510 659.745178,486.563385 655.222656,480.813782 
	C654.341858,479.694000 652.231384,478.620087 650.958008,478.874725 
	C639.719055,481.122589 628.643799,484.411438 617.324524,485.989807 
	C591.225403,489.629089 566.701660,497.222473 544.589172,511.872986 
	C533.811707,519.013611 524.410645,527.471436 517.843811,538.547424 
	C522.628174,541.930969 527.141174,545.122559 531.070129,547.901123 
	C536.101746,544.785767 541.158447,541.654846 546.888000,538.176941 
M337.263031,546.817200 
	C335.430847,546.815125 333.598663,546.810852 331.766479,546.811279 
	C324.165894,546.813110 322.199982,548.660828 321.302399,556.763733 
	C321.960205,556.812805 322.613770,556.910645 323.266052,556.903076 
	C377.726868,556.267151 432.187347,555.601196 486.649078,555.060913 
	C488.787415,555.039673 491.470154,555.611633 492.980133,556.946716 
	C497.141388,560.626099 501.754883,562.065918 507.180939,561.888794 
	C512.505005,561.714966 517.908936,562.386780 523.147705,561.697754 
	C527.403015,561.138123 531.449280,559.061035 535.620178,557.759338 
	C537.912903,557.043823 540.272888,556.012451 542.600403,556.018127 
	C596.566162,556.149475 650.531677,556.406006 704.497253,556.624939 
	C706.193481,556.631836 707.890320,556.486389 709.329102,556.423218 
	C707.861206,547.455383 702.266296,546.831055 695.023071,546.946899 
	C659.884583,547.508606 624.737366,547.518799 589.593506,547.756409 
	C574.769775,547.856628 559.940186,547.837158 545.127319,548.310913 
	C541.151550,548.438110 535.765991,548.929688 533.609497,551.456970 
	C530.054321,555.623474 526.279724,555.929260 521.776306,555.935791 
	C515.946716,555.944336 510.110168,556.187073 504.291870,555.951416 
	C502.527985,555.880005 500.089600,555.044739 499.203735,553.724792 
	C495.354401,547.989014 489.985779,546.946411 483.586700,546.955444 
	C435.116974,547.024048 386.646942,546.890625 337.263031,546.817200 
z"/>
<path fill="#6EC0B1" opacity="1.000000" stroke="none" 
	d="
M566.487305,227.876709 
	C566.508667,237.205536 566.388306,246.538986 566.693298,255.858536 
	C566.743103,257.381409 568.357239,259.304535 569.775330,260.262543 
	C587.336548,272.125885 604.432434,284.538055 619.229675,299.858917 
	C634.452209,315.620056 647.275024,333.004517 653.739441,354.182037 
	C664.649536,389.923889 653.917786,419.740662 627.385437,444.637421 
	C613.769043,457.414459 597.276611,465.974457 581.064880,474.873291 
	C562.702698,484.952576 545.421814,496.470093 531.833801,512.715576 
	C527.573120,517.809509 523.816650,523.325195 519.141663,528.314392 
	C521.322144,523.975891 522.958130,519.241150 525.777588,515.367737 
	C537.819946,498.823456 549.804260,482.207428 562.584595,466.237640 
	C576.930115,448.312103 590.444580,429.952576 597.803650,407.972015 
	C611.582092,366.817413 605.393127,328.472168 580.418640,293.111359 
	C576.538269,287.617218 572.223206,282.430145 568.109131,277.101074 
	C567.697205,277.245789 567.285217,277.390472 566.873291,277.535156 
	C566.873291,279.449615 566.860168,281.364136 566.875244,283.278473 
	C567.262878,332.438507 567.374084,381.603638 568.279053,430.754150 
	C568.460144,440.587341 564.935486,448.003784 559.123535,455.819214 
	C558.940674,454.251617 558.704773,453.201782 558.712158,452.153656 
	C559.131287,392.995850 559.534363,333.837799 560.082764,274.681152 
	C560.123108,270.333649 558.910156,267.198303 555.635254,264.270050 
	C545.243835,254.978500 535.100403,245.409515 525.106567,235.147369 
	C536.362000,241.191910 547.617493,247.236450 559.803589,253.780777 
	C559.803589,237.608994 559.803589,222.261124 559.803589,206.194214 
	C562.340332,206.511917 564.042114,206.725067 565.965454,207.619354 
	C566.287048,214.825912 566.387207,221.351303 566.487305,227.876709 
z"/>
<path fill="#F6684B" opacity="1.000000" stroke="none" 
	d="
M529.187866,471.422363 
	C528.751160,472.188446 528.314453,472.954529 527.508301,474.034485 
	C527.138794,474.348389 527.054932,474.590820 527.054932,474.590820 
	C526.040283,474.155792 525.025696,473.720734 523.838989,472.649475 
	C521.687866,470.101440 519.708740,468.189575 517.729614,466.277740 
	C517.729614,466.277740 517.804138,466.225006 517.696838,465.933472 
	C509.982697,457.428925 488.311859,453.335754 482.453766,458.045898 
	C479.203400,457.778168 476.759094,457.054962 474.546631,457.495667 
	C468.695129,458.661224 462.910889,460.213257 457.162872,461.834808 
	C452.020538,463.285492 446.962280,465.034149 441.399475,466.799683 
	C441.611237,465.208832 441.653625,464.553558 441.792664,463.919525 
	C442.041412,462.785004 442.293152,461.645996 442.639557,460.538879 
	C446.401306,448.516541 446.430237,436.679474 440.612061,425.248749 
	C439.319580,422.709412 437.386963,420.495850 435.749084,418.132294 
	C435.749084,418.132294 435.860535,418.116180 435.770508,417.927979 
	C435.425446,417.510498 435.170410,417.281250 434.915375,417.052032 
	C434.915375,417.052032 434.995087,417.018524 434.920654,416.754303 
	C434.294647,415.989838 433.743042,415.489624 433.191437,414.989380 
	C433.191437,414.989380 432.933441,414.792023 432.777100,414.357544 
	C432.333466,413.653809 432.046204,413.384552 431.758911,413.115295 
	C431.758911,413.115295 431.835693,413.148285 431.806335,412.830872 
	C429.456116,410.389282 427.135254,408.265076 424.814392,406.140900 
	C424.814392,406.140900 424.901215,406.102295 424.849274,405.795837 
	C421.437073,403.084808 418.076813,400.680298 414.716553,398.275787 
	C414.716553,398.275787 414.799622,398.244568 414.678253,397.951630 
	C413.539368,397.163422 412.521851,396.668152 411.504333,396.172882 
	C411.504333,396.172882 411.237518,396.136353 411.035767,395.713867 
	C409.467407,394.613312 408.100830,393.935211 406.734222,393.257080 
	C406.734222,393.257080 406.908356,393.164307 406.790955,392.882690 
	C403.745026,391.119629 400.816528,389.638184 397.888031,388.156738 
	C396.154114,387.745941 394.420227,387.335175 392.290527,386.441406 
	C390.989990,383.390015 392.137970,383.152832 394.349701,383.552551 
	C398.434326,384.290741 402.569580,384.743439 406.667511,385.414093 
	C438.003418,390.542480 469.329254,395.732971 500.677551,400.784027 
	C504.032440,401.324585 507.511353,401.095398 510.932709,401.223297 
	C511.399323,401.251465 511.865906,401.279602 512.857239,401.729584 
	C518.739441,403.098236 524.067627,404.318390 529.464600,404.896637 
	C533.117493,405.288025 534.914429,406.885742 536.334961,410.216278 
	C540.811462,420.711578 541.482971,431.805176 539.305237,442.494507 
	C537.284729,452.412537 532.663757,461.800812 529.187866,471.422363 
z"/>
<path fill="#F4E4C0" opacity="1.000000" stroke="none" 
	d="
M375.535889,481.498962 
	C380.010468,472.933838 386.514618,472.243134 395.204773,473.602356 
	C426.258118,478.459290 455.403778,487.822693 480.887238,506.768799 
	C492.816833,515.638000 503.697510,525.576172 510.857361,538.453491 
	C506.340668,541.405762 502.140442,544.151184 497.550018,547.151733 
	C479.088318,532.663452 456.516632,529.251465 433.269745,529.100098 
	C402.459229,528.899475 371.644104,529.406372 340.830872,529.591125 
	C340.570160,529.592651 340.307983,529.345032 339.743591,529.061646 
	C343.773834,522.950134 349.409729,518.927551 356.196075,516.996460 
	C363.365570,514.956421 370.732330,512.885010 378.111176,512.433655 
	C406.305481,510.709106 434.403687,511.415070 461.883331,519.066650 
	C466.565704,520.370422 471.102020,522.198853 475.856659,523.836853 
	C473.852325,519.587830 459.291046,512.287720 441.007660,507.647369 
	C428.148071,504.383606 414.988251,501.898132 401.810669,500.406311 
	C388.799927,498.933380 375.598297,499.146515 361.939758,498.598297 
	C366.387421,493.000244 370.847717,487.386292 375.535889,481.498962 
z"/>
<path fill="#F4E4C0" opacity="1.000000" stroke="none" 
	d="
M546.551575,538.350403 
	C541.158447,541.654846 536.101746,544.785767 531.070129,547.901123 
	C527.141174,545.122559 522.628174,541.930969 517.843811,538.547424 
	C524.410645,527.471436 533.811707,519.013611 544.589172,511.872986 
	C566.701660,497.222473 591.225403,489.629089 617.324524,485.989807 
	C628.643799,484.411438 639.719055,481.122589 650.958008,478.874725 
	C652.231384,478.620087 654.341858,479.694000 655.222656,480.813782 
	C659.745178,486.563385 663.992310,492.529510 669.025879,499.356018 
	C632.145813,497.648102 596.921692,502.043304 563.495911,517.461060 
	C565.218811,517.234253 566.963196,517.112549 568.661438,516.765076 
	C600.977600,510.152008 633.432617,509.414520 665.907288,515.141235 
	C675.675781,516.863892 684.587769,520.993835 690.948914,530.340698 
	C688.621521,530.340698 686.878357,530.347412 685.135193,530.339722 
	C651.322266,530.190796 617.507874,529.800903 583.697266,530.012878 
	C570.989990,530.092529 558.575439,532.829407 546.551575,538.350403 
z"/>
<path fill="#70BDB0" opacity="1.000000" stroke="none" 
	d="
M337.720032,546.818726 
	C386.646942,546.890625 435.116974,547.024048 483.586700,546.955444 
	C489.985779,546.946411 495.354401,547.989014 499.203735,553.724792 
	C500.089600,555.044739 502.527985,555.880005 504.291870,555.951416 
	C510.110168,556.187073 515.946716,555.944336 521.776306,555.935791 
	C526.279724,555.929260 530.054321,555.623474 533.609497,551.456970 
	C535.765991,548.929688 541.151550,548.438110 545.127319,548.310913 
	C559.940186,547.837158 574.769775,547.856628 589.593506,547.756409 
	C624.737366,547.518799 659.884583,547.508606 695.023071,546.946899 
	C702.266296,546.831055 707.861206,547.455383 709.329102,556.423218 
	C707.890320,556.486389 706.193481,556.631836 704.497253,556.624939 
	C650.531677,556.406006 596.566162,556.149475 542.600403,556.018127 
	C540.272888,556.012451 537.912903,557.043823 535.620178,557.759338 
	C531.449280,559.061035 527.403015,561.138123 523.147705,561.697754 
	C517.908936,562.386780 512.505005,561.714966 507.180939,561.888794 
	C501.754883,562.065918 497.141388,560.626099 492.980133,556.946716 
	C491.470154,555.611633 488.787415,555.039673 486.649078,555.060913 
	C432.187347,555.601196 377.726868,556.267151 323.266052,556.903076 
	C322.613770,556.910645 321.960205,556.812805 321.302399,556.763733 
	C322.199982,548.660828 324.165894,546.813110 331.766479,546.811279 
	C333.598663,546.810852 335.430847,546.815125 337.720032,546.818726 
z"/>
<path fill="#F69945" opacity="1.000000" stroke="none" 
	d="
M454.446289,225.148758 
	C463.829987,226.992859 470.178406,232.954651 476.032288,240.120651 
	C488.111328,254.907013 496.148804,271.330505 498.285645,290.437531 
	C498.373047,291.219116 498.296753,292.019043 498.296753,293.637329 
	C487.220612,283.530853 475.568604,276.887451 459.769318,281.102173 
	C452.656647,283.266083 446.307068,285.236938 440.331482,287.091736 
	C441.805664,279.539581 443.106140,272.877289 444.406647,266.214996 
	C444.355286,265.045013 444.303925,263.875031 444.437958,261.938568 
	C443.989288,257.314514 443.967712,253.223373 442.603058,249.644379 
	C438.927094,240.003799 434.121246,230.982452 425.080658,225.085419 
	C421.039551,221.272293 416.998444,217.459167 412.957336,213.646042 
	C413.153748,213.235504 413.350159,212.824982 413.546570,212.414459 
	C423.235535,215.132889 432.924500,217.851303 443.218079,220.875900 
	C445.117340,221.529037 446.412018,221.876007 447.706665,222.222961 
	C447.909485,222.341385 448.112274,222.459793 448.773315,222.984589 
	C450.231476,223.671341 451.231293,223.951736 452.231140,224.232117 
	C452.231140,224.232117 452.673889,224.330276 452.992798,224.610580 
	C453.689911,224.976837 454.068085,225.062790 454.446289,225.148758 
z"/>
<path fill="#D56E57" opacity="1.000000" stroke="none" 
	d="
M514.985168,315.014862 
	C530.497314,334.230011 538.116272,368.624603 527.532837,386.614594 
	C501.752350,370.443665 484.535248,363.574432 469.776306,363.920074 
	C470.563080,370.162384 471.515381,376.337677 472.028015,382.549286 
	C472.202484,384.662811 471.269867,386.867676 470.843140,389.030823 
	C469.898071,386.939209 468.479675,384.930206 468.097351,382.740326 
	C466.984802,376.367462 466.286926,369.922211 465.397095,363.286377 
	C445.037048,361.226288 425.906036,366.352051 406.215698,370.682068 
	C409.592773,365.885284 413.353699,361.306763 416.239929,356.230865 
	C419.176605,351.066132 421.990570,345.613464 423.544556,339.927795 
	C426.438202,329.340942 424.250580,319.446198 416.965271,310.500244 
	C416.930481,310.080719 417.121704,309.882812 417.421387,310.027100 
	C423.056091,315.643829 425.721100,322.161499 426.034149,329.838959 
	C426.445435,339.925995 422.985504,348.698242 417.702393,356.986786 
	C415.393372,360.609283 413.209839,364.311768 410.901245,368.019318 
	C410.833160,368.060730 410.838196,368.267151 410.838196,368.267151 
	C410.838196,368.267151 411.023773,368.031982 411.437988,368.026855 
	C414.640259,367.578003 417.479218,367.338226 420.207916,366.656921 
	C435.901794,362.738586 451.682678,360.315643 467.966858,361.935608 
	C485.246063,363.654602 501.601562,367.924408 516.334106,377.442841 
	C519.741272,379.644104 523.199280,381.766663 526.983093,384.144958 
	C527.739624,382.422058 528.409180,381.288025 528.749451,380.062500 
	C532.729309,365.730225 531.387024,351.630096 525.900391,338.044342 
	C522.743469,330.227295 518.447021,322.870453 514.743835,315.233490 
	C514.824219,315.160522 514.985168,315.014862 514.985168,315.014862 
z"/>
<path fill="#EC6D52" opacity="1.000000" stroke="none" 
	d="
M566.780579,227.886078 
	C566.387207,221.351303 566.287048,214.825912 566.237854,207.931107 
	C570.616882,208.474426 574.914673,209.591217 579.282043,210.238800 
	C583.156067,210.813232 587.111328,211.140213 591.023682,211.084030 
	C596.558594,211.004578 602.087036,210.472336 608.609985,210.072906 
	C601.276489,214.907700 595.110046,218.935410 588.983276,223.022537 
	C582.298889,227.481659 574.864990,228.466599 566.780579,227.886078 
z"/>
<path fill="#D56E57" opacity="1.000000" stroke="none" 
	d="
M435.836426,418.484253 
	C437.386963,420.495850 439.319580,422.709412 440.612061,425.248749 
	C446.430237,436.679474 446.401306,448.516541 442.639557,460.538879 
	C442.293152,461.645996 442.041412,462.785004 441.792664,463.919525 
	C441.653625,464.553558 441.611237,465.208832 441.399475,466.799683 
	C446.962280,465.034149 452.020538,463.285492 457.162872,461.834808 
	C462.910889,460.213257 468.695129,458.661224 474.546631,457.495667 
	C476.759094,457.054962 479.203400,457.778168 482.453766,458.045898 
	C488.311859,453.335754 509.982697,457.428925 517.695129,465.979065 
	C507.560211,459.773438 496.580231,456.341278 483.804321,458.006714 
	C485.780701,473.380920 487.707184,488.367188 489.633698,503.353424 
	C488.800720,503.574158 487.967743,503.794891 487.134766,504.015625 
	C486.365143,502.136108 485.181854,500.317688 484.893646,498.367035 
	C483.141144,486.505890 481.418671,474.634277 480.075409,462.722260 
	C479.639038,458.852631 478.250641,457.744476 474.688446,458.782104 
	C464.158142,461.849548 453.614685,464.872009 443.087219,467.949158 
	C441.539246,468.401611 440.050262,469.055847 437.329895,470.062164 
	C445.737335,452.049194 446.350281,435.171204 435.836426,418.484253 
z"/>
<path fill="#D56E57" opacity="1.000000" stroke="none" 
	d="
M510.581116,401.076355 
	C507.511353,401.095398 504.032440,401.324585 500.677551,400.784027 
	C469.329254,395.732971 438.003418,390.542480 406.667511,385.414093 
	C402.569580,384.743439 398.434326,384.290741 394.349701,383.552551 
	C392.137970,383.152832 390.989990,383.390015 391.944580,386.257385 
	C389.322693,384.861176 385.013733,385.553070 383.595703,380.483093 
	C426.251953,387.370361 468.240723,394.149872 510.581116,401.076355 
z"/>
<path fill="#D56E57" opacity="1.000000" stroke="none" 
	d="
M416.835144,310.179993 
	C413.747864,307.469727 410.755890,304.660248 406.547668,300.708679 
	C414.514496,301.293243 421.009583,301.673615 427.485779,302.261932 
	C453.974152,304.668152 480.461029,307.093903 506.933167,309.669434 
	C509.000366,309.870544 510.949799,311.281952 512.985107,312.555573 
	C513.016296,312.980286 512.835327,313.165436 512.488892,313.018921 
	C509.782257,312.235748 507.454895,311.244232 505.056213,311.021667 
	C492.154114,309.824432 479.222137,308.946106 466.323853,307.712708 
	C451.446533,306.290070 436.603210,304.512115 421.725708,303.091309 
	C415.143372,302.462738 414.294525,303.916595 417.121704,309.882812 
	C417.121704,309.882812 416.930481,310.080719 416.835144,310.179993 
z"/>
<path fill="#D56E57" opacity="1.000000" stroke="none" 
	d="
M444.276306,266.571594 
	C443.106140,272.877289 441.805664,279.539581 440.331482,287.091736 
	C446.307068,285.236938 452.656647,283.266083 459.333435,281.173950 
	C460.018982,287.281342 460.377380,293.510010 460.736115,299.744232 
	C457.140106,299.647797 457.143677,299.647247 456.160858,293.110229 
	C455.696899,290.024231 455.216125,286.940765 454.516174,282.377655 
	C447.375000,286.237366 440.982391,289.692474 435.185242,292.825745 
	C438.087036,284.439240 441.116516,275.683716 444.276306,266.571594 
z"/>
<path fill="#D56E57" opacity="1.000000" stroke="none" 
	d="
M529.447510,471.325836 
	C532.663757,461.800812 537.284729,452.412537 539.305237,442.494507 
	C541.482971,431.805176 540.811462,420.711578 536.334961,410.216278 
	C534.914429,406.885742 533.117493,405.288025 529.464600,404.896637 
	C524.067627,404.318390 518.739441,403.098236 513.176941,401.877197 
	C519.397217,402.443054 525.875305,403.020569 532.213867,404.292755 
	C533.979126,404.647064 536.009094,406.770142 536.769775,408.567566 
	C544.916260,427.816742 542.813965,446.579895 533.526306,464.863434 
	C532.408325,467.064209 530.987549,469.111084 529.447510,471.325836 
z"/>
<path fill="#D56E57" opacity="1.000000" stroke="none" 
	d="
M447.897461,221.774353 
	C446.412018,221.876007 445.117340,221.529037 443.604431,221.067261 
	C443.691040,219.440582 444.365082,217.895599 444.232971,216.422928 
	C443.801605,211.614410 442.907257,206.844513 442.559418,202.033112 
	C442.443909,200.435059 443.441772,198.756500 443.930603,197.114761 
	C444.765625,197.213470 445.600616,197.312195 446.435638,197.410904 
	C446.986511,205.382523 447.537415,213.354126 447.897461,221.774353 
z"/>
<path fill="#D56E57" opacity="1.000000" stroke="none" 
	d="
M425.183777,225.392258 
	C434.121246,230.982452 438.927094,240.003799 442.603058,249.644379 
	C443.967712,253.223373 443.989288,257.314514 444.460785,261.499603 
	C442.322266,247.489517 435.327423,235.792953 425.183777,225.392258 
z"/>
<path fill="#D56E57" opacity="1.000000" stroke="none" 
	d="
M414.878113,398.561829 
	C418.076813,400.680298 421.437073,403.084808 424.828979,405.838745 
	C421.586945,403.741425 418.313293,401.294647 414.878113,398.561829 
z"/>
<path fill="#D56E57" opacity="1.000000" stroke="none" 
	d="
M398.007202,388.465668 
	C400.816528,389.638184 403.745026,391.119629 406.717346,392.948364 
	C403.882874,391.788635 401.004639,390.281616 398.007202,388.465668 
z"/>
<path fill="#D56E57" opacity="1.000000" stroke="none" 
	d="
M424.949524,406.444763 
	C427.135254,408.265076 429.456116,410.389282 431.786194,412.867493 
	C429.558472,411.063873 427.321564,408.906250 424.949524,406.444763 
z"/>
<path fill="#D56E57" opacity="1.000000" stroke="none" 
	d="
M517.886108,466.566864 
	C519.708740,468.189575 521.687866,470.101440 523.790894,472.273224 
	C521.957458,470.640778 520.000061,468.748383 517.886108,466.566864 
z"/>
<path fill="#D56E57" opacity="1.000000" stroke="none" 
	d="
M406.913971,393.521423 
	C408.100830,393.935211 409.467407,394.613312 410.947205,395.612488 
	C409.738159,395.217621 408.415955,394.501709 406.913971,393.521423 
z"/>
<path fill="#D56E57" opacity="1.000000" stroke="none" 
	d="
M411.711853,396.440125 
	C412.521851,396.668152 413.539368,397.163422 414.687927,397.994934 
	C413.852448,397.789886 412.885895,397.248627 411.711853,396.440125 
z"/>
<path fill="#D56E57" opacity="1.000000" stroke="none" 
	d="
M452.037109,224.066650 
	C451.231293,223.951736 450.231476,223.671341 449.055481,223.195480 
	C449.867218,223.300400 450.855133,223.600800 452.037109,224.066650 
z"/>
<path fill="#D56E57" opacity="1.000000" stroke="none" 
	d="
M433.265564,415.262390 
	C433.743042,415.489624 434.294647,415.989838 434.889374,416.784180 
	C434.401550,416.564026 433.870605,416.049744 433.265564,415.262390 
z"/>
<path fill="#D56E57" opacity="1.000000" stroke="none" 
	d="
M513.106689,312.887573 
	C513.731689,313.349396 514.266296,313.903931 514.893066,314.736664 
	C514.985168,315.014862 514.824219,315.160522 514.507324,315.070801 
	C513.738647,314.375885 513.286987,313.770660 512.835327,313.165436 
	C512.835327,313.165436 513.016296,312.980286 513.106689,312.887573 
z"/>
<path fill="#D56E57" opacity="1.000000" stroke="none" 
	d="
M526.999023,474.734802 
	C527.054932,474.590820 527.138794,474.348389 527.171387,474.319580 
	C527.116943,474.486786 527.030029,474.682800 526.999023,474.734802 
z"/>
<path fill="#D56E57" opacity="1.000000" stroke="none" 
	d="
M454.306427,225.006927 
	C454.068085,225.062790 453.689911,224.976837 453.167572,224.755035 
	C453.404480,224.701141 453.785522,224.783112 454.306427,225.006927 
z"/>
<path fill="#D56E57" opacity="1.000000" stroke="none" 
	d="
M431.848328,413.404846 
	C432.046204,413.384552 432.333466,413.653809 432.725555,414.203522 
	C432.532837,414.220764 432.235321,413.957550 431.848328,413.404846 
z"/>
<path fill="#D56E57" opacity="1.000000" stroke="none" 
	d="
M434.988342,417.309753 
	C435.170410,417.281250 435.425446,417.510498 435.775024,417.984131 
	C435.600159,418.008148 435.330719,417.787811 434.988342,417.309753 
z"/>
<path fill="#F7674A" opacity="1.000000" stroke="none" 
	d="
M512.488892,313.018921 
	C513.286987,313.770660 513.738647,314.375885 514.426880,315.143799 
	C518.447021,322.870453 522.743469,330.227295 525.900391,338.044342 
	C531.387024,351.630096 532.729309,365.730225 528.749451,380.062500 
	C528.409180,381.288025 527.739624,382.422058 526.983093,384.144958 
	C523.199280,381.766663 519.741272,379.644104 516.334106,377.442841 
	C501.601562,367.924408 485.246063,363.654602 467.966858,361.935608 
	C451.682678,360.315643 435.901794,362.738586 420.207916,366.656921 
	C417.479218,367.338226 414.640259,367.578003 411.425659,368.011993 
	C410.999115,368.002289 410.969299,367.977905 410.969299,367.977905 
	C413.209839,364.311768 415.393372,360.609283 417.702393,356.986786 
	C422.985504,348.698242 426.445435,339.925995 426.034149,329.838959 
	C425.721100,322.161499 423.056091,315.643829 417.421387,310.027100 
	C414.294525,303.916595 415.143372,302.462738 421.725708,303.091309 
	C436.603210,304.512115 451.446533,306.290070 466.323853,307.712708 
	C479.222137,308.946106 492.154114,309.824432 505.056213,311.021667 
	C507.454895,311.244232 509.782257,312.235748 512.488892,313.018921 
z"/>
<path fill="#F7674A" opacity="1.000000" stroke="none" 
	d="
M411.011444,368.017151 
	C411.023773,368.031982 410.838196,368.267151 410.838196,368.267151 
	C410.838196,368.267151 410.833160,368.060730 410.901245,368.019318 
	C410.969299,367.977905 410.999115,368.002289 411.011444,368.017151 
z"/>
</svg>